<svg width="40" height="40" viewBox="0 0 40 40" fill="none" xmlns="http://www.w3.org/2000/svg">
  <rect width="40" height="40" rx="20" fill="#0052FF"/>
  <path d="M20 32C26.6274 32 32 26.6274 32 20C32 13.3726 26.6274 8 20 8C13.3726 8 8 13.3726 8 20C8 26.6274 13.3726 32 20 32Z" fill="#0052FF"/>
  <path d="M19.9998 25.7999C14.7999 25.7999 10.7999 21.7998 10.7999 16.5999H8C8 23.3998 13.1999 28.5997 19.9998 28.5997C26.7996 28.5997 31.9995 23.3998 31.9995 16.5999H29.1996C29.1996 21.7998 25.1996 25.7999 19.9998 25.7999Z" fill="white"/>
  <path d="M19.9998 11.4001C25.1996 11.4001 29.1996 15.4 29.1996 20.5999H31.9995C31.9995 13.8 26.7996 8.60016 19.9998 8.60016C13.1999 8.60016 8 13.8 8 20.5999H10.7999C10.7999 15.4 14.7999 11.4001 19.9998 11.4001Z" fill="white"/>
  <path d="M16 20C16 22.2 17.8 24 20 24C22.2 24 24 22.2 24 20C24 17.8 22.2 16 20 16C17.8 16 16 17.8 16 20Z" fill="white"/>
</svg>