<svg width="40" height="40" viewBox="0 0 40 40" xmlns="http://www.w3.org/2000/svg">
  <path d="M34.912 3.75L22.162 13.926L24.645 7.979L34.912 3.75Z" fill="#E2761B" stroke="#E2761B" stroke-width="0.5" stroke-linecap="round" stroke-linejoin="round"/>
  <path d="M5.07 3.75L17.742 14.004L15.355 7.979L5.07 3.75Z" fill="#E4761B" stroke="#E4761B" stroke-width="0.5" stroke-linecap="round" stroke-linejoin="round"/>
  <path d="M30.242 25.858L26.837 31.092L34.205 33.133L36.279 25.96L30.242 25.858Z" fill="#E4761B" stroke="#E4761B" stroke-width="0.5" stroke-linecap="round" stroke-linejoin="round"/>
  <path d="M3.738 25.96L5.795 33.133L13.163 31.092L9.758 25.858L3.738 25.96Z" fill="#E4761B" stroke="#E4761B" stroke-width="0.5" stroke-linecap="round" stroke-linejoin="round"/>
  <path d="M12.749 17.308L10.582 20.4L17.9 20.708L17.64 12.835L12.749 17.308Z" fill="#E4761B" stroke="#E4761B" stroke-width="0.5" stroke-linecap="round" stroke-linejoin="round"/>
  <path d="M27.234 17.308L22.292 12.756L22.162 20.708L29.418 20.4L27.234 17.308Z" fill="#E4761B" stroke="#E4761B" stroke-width="0.5" stroke-linecap="round" stroke-linejoin="round"/>
  <path d="M13.163 31.092L17.433 28.999L13.732 26.011L13.163 31.092Z" fill="#E4761B" stroke="#E4761B" stroke-width="0.5" stroke-linecap="round" stroke-linejoin="round"/>
  <path d="M22.55 28.999L26.837 31.092L26.251 26.011L22.55 28.999Z" fill="#E4761B" stroke="#E4761B" stroke-width="0.5" stroke-linecap="round" stroke-linejoin="round"/>
  <path d="M26.837 31.092L22.55 28.998L22.909 31.83L22.876 33.055L26.837 31.092Z" fill="#D7C1B3" stroke="#D7C1B3" stroke-width="0.5" stroke-linecap="round" stroke-linejoin="round"/>
  <path d="M13.163 31.092L17.124 33.055L17.108 31.83L17.433 28.998L13.163 31.092Z" fill="#D7C1B3" stroke="#D7C1B3" stroke-width="0.5" stroke-linecap="round" stroke-linejoin="round"/>
  <path d="M17.206 24.196L13.602 23.124L16.191 21.952L17.206 24.196Z" fill="#233447" stroke="#233447" stroke-width="0.5" stroke-linecap="round" stroke-linejoin="round"/>
  <path d="M22.777 24.196L23.792 21.952L26.398 23.124L22.777 24.196Z" fill="#233447" stroke="#233447" stroke-width="0.5" stroke-linecap="round" stroke-linejoin="round"/>
  <path d="M13.163 31.092L13.765 25.858L9.758 25.96L13.163 31.092Z" fill="#CD6116" stroke="#CD6116" stroke-width="0.5" stroke-linecap="round" stroke-linejoin="round"/>
  <path d="M26.235 25.858L26.837 31.092L30.242 25.96L26.235 25.858Z" fill="#CD6116" stroke="#CD6116" stroke-width="0.5" stroke-linecap="round" stroke-linejoin="round"/>
  <path d="M29.418 20.4L22.162 20.708L22.794 24.196L23.809 21.952L26.414 23.124L29.418 20.4Z" fill="#CD6116" stroke="#CD6116" stroke-width="0.5" stroke-linecap="round" stroke-linejoin="round"/>
  <path d="M13.602 23.124L16.207 21.952L17.206 24.196L17.9 20.708L10.582 20.4L13.602 23.124Z" fill="#CD6116" stroke="#CD6116" stroke-width="0.5" stroke-linecap="round" stroke-linejoin="round"/>
  <path d="M10.582 20.4L13.732 26.011L13.602 23.124L10.582 20.4Z" fill="#E4751F" stroke="#E4751F" stroke-width="0.5" stroke-linecap="round" stroke-linejoin="round"/>
  <path d="M26.414 23.124L26.251 26.011L29.418 20.4L26.414 23.124Z" fill="#E4751F" stroke="#E4751F" stroke-width="0.5" stroke-linecap="round" stroke-linejoin="round"/>
  <path d="M17.9 20.708L17.206 24.196L18.077 28.669L18.24 22.977L17.9 20.708Z" fill="#E4751F" stroke="#E4751F" stroke-width="0.5" stroke-linecap="round" stroke-linejoin="round"/>
  <path d="M22.162 20.708L21.841 22.96L21.938 28.669L22.794 24.196L22.162 20.708Z" fill="#E4751F" stroke="#E4751F" stroke-width="0.5" stroke-linecap="round" stroke-linejoin="round"/>
  <path d="M22.794 24.196L21.938 28.669L22.55 28.999L26.251 26.011L26.414 23.124L22.794 24.196Z" fill="#F6851B" stroke="#F6851B" stroke-width="0.5" stroke-linecap="round" stroke-linejoin="round"/>
  <path d="M13.602 23.124L13.732 26.011L17.433 28.999L18.045 28.669L17.206 24.196L13.602 23.124Z" fill="#F6851B" stroke="#F6851B" stroke-width="0.5" stroke-linecap="round" stroke-linejoin="round"/>
  <path d="M22.876 33.055L22.909 31.83L22.583 31.554H17.417L17.108 31.83L17.124 33.055L13.163 31.092L14.665 32.307L17.368 34.161H22.615L25.335 32.307L26.837 31.092L22.876 33.055Z" fill="#C0AD9E" stroke="#C0AD9E" stroke-width="0.5" stroke-linecap="round" stroke-linejoin="round"/>
  <path d="M22.55 28.998L21.938 28.669H18.045L17.433 28.998L17.108 31.83L17.417 31.554H22.583L22.909 31.83L22.55 28.998Z" fill="#161616" stroke="#161616" stroke-width="0.5" stroke-linecap="round" stroke-linejoin="round"/>
  <path d="M35.537 14.855L36.67 9.202L34.912 3.75L22.55 13.619L27.234 17.308L34.025 19.395L35.537 17.598L34.879 17.135L35.926 16.19L35.113 15.574L36.159 14.79L35.537 14.855Z" fill="#763D16" stroke="#763D16" stroke-width="0.5" stroke-linecap="round" stroke-linejoin="round"/>
  <path d="M3.33 9.202L4.463 14.855L3.825 14.79L4.87 15.574L4.074 16.19L5.121 17.135L4.463 17.598L5.958 19.395L12.749 17.308L17.433 13.619L5.071 3.75L3.33 9.202Z" fill="#763D16" stroke="#763D16" stroke-width="0.5" stroke-linecap="round" stroke-linejoin="round"/>
  <path d="M34.025 19.395L27.234 17.308L29.418 20.4L26.251 26.011L30.242 25.96H36.279L34.025 19.395Z" fill="#F6851B" stroke="#F6851B" stroke-width="0.5" stroke-linecap="round" stroke-linejoin="round"/>
  <path d="M12.749 17.308L5.958 19.395L3.738 25.96H9.758L13.732 26.011L10.582 20.4L12.749 17.308Z" fill="#F6851B" stroke="#F6851B" stroke-width="0.5" stroke-linecap="round" stroke-linejoin="round"/>
  <path d="M22.162 20.708L22.55 13.619L24.662 7.979H15.355L17.433 13.619L17.9 20.708L18.029 22.994L18.045 28.669H21.938L21.971 22.994L22.162 20.708Z" fill="#F6851B" stroke="#F6851B" stroke-width="0.5" stroke-linecap="round" stroke-linejoin="round"/>
</svg>