<svg width="40" height="40" viewBox="0 0 40 40" fill="none" xmlns="http://www.w3.org/2000/svg">
  <path d="M20 3.33337C30.1252 3.33337 38.3334 11.5416 38.3334 21.6667C38.3334 31.7918 30.1252 40 20 40C9.87484 40 1.66669 31.7918 1.66669 21.6667C1.66669 11.5416 9.87484 3.33337 20 3.33337Z" fill="#0500FF"/>
  <path fill-rule="evenodd" clip-rule="evenodd" d="M19.9998 10C23.8034 10 26.8893 12.5609 26.8893 15.7895C26.8893 17.1962 26.3734 18.4744 25.5269 19.4737H28.8702V29.4971C28.8702 30.3262 28.1935 31 27.3613 31H12.6387C11.8065 31 11.1298 30.3259 11.1298 29.4971V19.4737H14.4732C13.6266 18.4744 13.1107 17.1962 13.1107 15.7895C13.1107 12.5609 16.1964 10 19.9998 10ZM19.9998 12.6316C17.6468 12.6316 15.7442 14.0825 15.7442 15.7895C15.7442 17.4964 17.6468 18.9474 19.9998 18.9474C22.3532 18.9474 24.2558 17.4964 24.2558 15.7895C24.2558 14.0825 22.3532 12.6316 19.9998 12.6316ZM16.0552 21.5789H13.7638V28.3684H26.2362V21.5789H23.9448H16.0552Z" fill="white"/>
</svg>