<svg width="40" height="40" viewBox="0 0 40 40" fill="none" xmlns="http://www.w3.org/2000/svg">
  <path d="M8.192 14.646C15.009 7.829 26.188 7.829 33.005 14.646L33.751 15.393C34.082 15.723 34.082 16.256 33.751 16.586L31.213 19.125C31.048 19.29 30.781 19.29 30.616 19.125L29.594 18.103C24.932 13.442 16.265 13.442 11.603 18.103L10.500 19.206C10.335 19.371 10.068 19.371 9.903 19.206L7.365 16.668C7.034 16.338 7.034 15.805 7.365 15.475L8.192 14.646ZM37.307 18.949L39.516 21.158C39.847 21.488 39.847 22.021 39.516 22.351L30.019 31.849C29.689 32.178 29.156 32.178 28.826 31.849L22.326 25.348C22.244 25.265 22.112 25.265 22.029 25.348L15.529 31.849C15.198 32.178 14.665 32.178 14.335 31.849L4.837 22.351C4.506 22.021 4.506 21.488 4.837 21.158L7.046 18.949C7.376 18.619 7.909 18.619 8.239 18.949L14.740 25.450C14.823 25.533 14.954 25.533 15.037 25.450L21.537 18.949C21.868 18.619 22.400 18.619 22.730 18.949L29.231 25.450C29.314 25.533 29.445 25.533 29.528 25.450L36.028 18.949C36.444 18.619 36.977 18.619 37.307 18.949Z" fill="#3B99FC"/>
</svg>